<?xml version="1.0" encoding="utf-8"?>
<svg version="1.1" id="Layer_1" xmlns="http://www.w3.org/2000/svg" x="0px" y="0px" viewBox="101.996 96.149 300.788 299.165" style="enable-background:new 0 0 1400 980;">
  <style type="text/css">
	.st0{fill:#FFFFFF;}
	.st1{fill:#ACC2D1;}
	.st2{fill:#EF1C25;}
	.st3{fill:#3086D3;}
	.st4{fill:#A8CDD5;}
	.st5{fill:#FAFE2B;}
	.st6{fill:#D3CA22;}
	.st7{fill:#FE1020;}
	.st8{fill:#75C9AF;}
	.st9{fill:#B2143A;}
	.st10{fill:#007376;}
	.st11{fill:#291E1A;}
	.st12{fill:#65FF7D;}
	.st13{fill:#4EC45C;}
	.st14{fill:#AA111D;}
</style>
  <g>
    <g>
      <circle class="st0" cx="251.5" cy="246.4" r="136.2"/>
      <path d="M251.5,392.3c-80.5,0-145.9-65.5-145.9-145.9s65.5-145.9,145.9-145.9s145.9,65.5,145.9,145.9S332,392.3,251.5,392.3z M251.5,120c-69.7,0-126.4,56.7-126.4,126.4c0,69.7,56.7,126.4,126.4,126.4c69.7,0,126.4-56.7,126.4-126.4 C377.9,176.7,321.2,120,251.5,120z"/>
    </g>
    <path class="st1" d="M251.5,355c-35.5,0-69.7-12.9-96.3-36.3c-6.9-6-13.1-12.7-18.7-19.8c20,43.6,64,73.9,115,73.9 c51,0,95-30.3,115-73.9c-5.6,7.1-11.8,13.8-18.7,19.8C321.2,342.1,287,355,251.5,355z"/>
    <g>
      <path class="st2" d="M251.5,110.2c-75.2,0-136.2,61-136.2,136.2h272.3C387.7,171.2,326.7,110.2,251.5,110.2z"/>
      <path d="M397.4,256.1H105.6v-9.7c0-80.5,65.5-145.9,145.9-145.9s145.9,65.5,145.9,145.9V256.1z M125.5,236.6h252.1 C372.6,171.5,318,120,251.5,120S130.5,171.5,125.5,236.6z"/>
    </g>
    <g>
      <circle class="st0" cx="251.5" cy="246.4" r="37.3"/>
      <path d="M251.5,293.4c-25.9,0-47-21.1-47-47s21.1-47,47-47c25.9,0,47,21.1,47,47S277.5,293.4,251.5,293.4z M251.5,218.8 c-15.2,0-27.5,12.4-27.5,27.5s12.4,27.5,27.5,27.5s27.5-12.4,27.5-27.5S266.7,218.8,251.5,218.8z"/>
    </g>
  </g>
</svg>